<svg width="1120" height="320" viewBox="0 0 1120 320" fill="none" xmlns="http://www.w3.org/2000/svg">
  <defs>
    <linearGradient id="card" x1="0" y1="0" x2="1" y2="1">
      <stop offset="0%" stop-color="#F4FBF6"/>
      <stop offset="100%" stop-color="#E8F6ED"/>
    </linearGradient>
  </defs>

  <rect x="60" y="44" width="1000" height="220" rx="40" fill="white"/>
  <rect x="80" y="64" width="220" height="180" rx="34" fill="url(#card)"/>
  <g transform="translate(95 68) scale(0.36)">
    <path d="M139.758 185.483C143.984 134.47 185.723 94 237.432 94H276.48C326.973 94 368.023 132.116 374.066 182.245L378.364 217.897C383.347 259.199 369.795 300.444 341.202 330.654L339.924 332.005C321.81 351.138 297.097 362 270.747 362H243.84C187.315 362 140.979 317.352 138.84 260.867L137.087 214.603C136.715 204.786 137.611 194.967 139.758 185.483Z" fill="#68C866"/>
    <path d="M174.44 136.952C157.779 125.516 151.402 104.026 160.616 86.4844C168.536 71.4104 184.22 64.5972 198.54 70.2028C204.745 72.6317 209.462 77.6966 211.698 84.3444L220.449 110.361C223.087 118.205 220.744 126.862 214.507 132.252L196.222 148.055C189.821 153.587 180.843 155.042 174.44 136.952Z" fill="#68C866"/>
    <path d="M337.56 136.952C354.221 125.516 360.598 104.026 351.384 86.4844C343.464 71.4104 327.78 64.5972 313.46 70.2028C307.255 72.6317 302.538 77.6966 300.302 84.3444L291.551 110.361C288.913 118.205 291.256 126.862 297.493 132.252L315.778 148.055C322.179 153.587 331.157 155.042 337.56 136.952Z" fill="#68C866"/>
    <path d="M220 312C220 277.758 247.758 250 282 250C316.242 250 344 277.758 344 312V317C344 351.242 316.242 379 282 379C247.758 379 220 351.242 220 317V312Z" fill="#A8DD72"/>
    <path d="M182 188C182 160.386 204.386 138 232 138C259.614 138 282 160.386 282 188C282 215.614 259.614 238 232 238C204.386 238 182 215.614 182 188Z" fill="white"/>
    <path d="M285 188C285 160.386 307.386 138 335 138C362.614 138 385 160.386 385 188C385 215.614 362.614 238 335 238C307.386 238 285 215.614 285 188Z" fill="white"/>
    <path d="M208 188C208 174.745 218.745 164 232 164C245.255 164 256 174.745 256 188C256 201.255 245.255 212 232 212C218.745 212 208 201.255 208 188Z" fill="#2B6F4E"/>
    <path d="M311 188C311 174.745 321.745 164 335 164C348.255 164 359 174.745 359 188C359 201.255 348.255 212 335 212C321.745 212 311 201.255 311 188Z" fill="#2B6F4E"/>
    <path d="M220 180C220 175.582 223.582 172 228 172C232.418 172 236 175.582 236 180C236 184.418 232.418 188 228 188C223.582 188 220 184.418 220 180Z" fill="white"/>
    <path d="M323 180C323 175.582 326.582 172 331 172C335.418 172 339 175.582 339 180C339 184.418 335.418 188 331 188C326.582 188 323 184.418 323 180Z" fill="white"/>
    <path d="M264.846 227.248C272.991 235.346 283.451 239.395 294.719 239.395C305.988 239.395 316.448 235.346 324.593 227.248" stroke="#2F7A52" stroke-width="12" stroke-linecap="round"/>
    <path d="M145.385 184.266C149.142 138.896 186.264 103 232.047 103H266.615C311.321 103 347.677 136.74 353.026 181.099L356.831 212.642C361.242 249.183 349.251 285.691 323.947 312.433L322.815 313.629C306.782 330.559 284.912 340.172 261.596 340.172H237.794C187.781 340.172 146.774 300.681 144.882 250.714L143.33 209.785C143.001 201.099 143.793 192.41 145.385 184.266Z" stroke="#1D744E" stroke-width="12" stroke-linejoin="round"/>
  </g>
  <text x="360" y="142" fill="#182230" font-size="82" font-weight="700" font-family="Inter, SF Pro Display, Segoe UI, Helvetica Neue, Arial, sans-serif" letter-spacing="-2">WeHi</text>
  <text x="364" y="190" fill="#576577" font-size="28" font-weight="500" font-family="Inter, SF Pro Text, Segoe UI, Helvetica Neue, Arial, sans-serif">Distributed IM infrastructure with a polished desktop client.</text>
  <rect x="364" y="214" width="118" height="36" rx="18" fill="#E9F8EF"/>
  <text x="390" y="238" fill="#168457" font-size="18" font-weight="700" font-family="Inter, SF Pro Text, Segoe UI, Helvetica Neue, Arial, sans-serif">Open Source</text>
</svg>
