<svg width="512" height="512" viewBox="0 0 512 512" fill="none" xmlns="http://www.w3.org/2000/svg">
  <defs>
    <linearGradient id="bg" x1="88" y1="72" x2="428" y2="448" gradientUnits="userSpaceOnUse">
      <stop stop-color="#AAF16E" />
      <stop offset="0.55" stop-color="#4DBB63" />
      <stop offset="1" stop-color="#14875D" />
    </linearGradient>
    <linearGradient id="belly" x1="213" y1="276" x2="319" y2="412" gradientUnits="userSpaceOnUse">
      <stop stop-color="#C8F08F" />
      <stop offset="1" stop-color="#93D460" />
    </linearGradient>
    <linearGradient id="outline" x1="111" y1="111" x2="382" y2="416" gradientUnits="userSpaceOnUse">
      <stop stop-color="#2E845A" />
      <stop offset="1" stop-color="#186547" />
    </linearGradient>
    <filter id="shadow" x="57" y="53" width="398" height="408" filterUnits="userSpaceOnUse" color-interpolation-filters="sRGB">
      <feFlood flood-opacity="0" result="BackgroundImageFix"/>
      <feColorMatrix in="SourceAlpha" type="matrix" values="0 0 0 0 0 0 0 0 0 0 0 0 0 0 0 0 0 0 127 0" result="hardAlpha"/>
      <feOffset dy="16"/>
      <feGaussianBlur stdDeviation="18"/>
      <feColorMatrix type="matrix" values="0 0 0 0 0.0784314 0 0 0 0 0.403922 0 0 0 0 0.278431 0 0 0 0.22 0"/>
      <feBlend mode="normal" in2="BackgroundImageFix" result="effect1_dropShadow_0_1"/>
      <feBlend mode="normal" in="SourceGraphic" in2="effect1_dropShadow_0_1" result="shape"/>
    </filter>
  </defs>

  <g filter="url(#shadow)">
    <path d="M139.758 185.483C143.984 134.47 185.723 94 237.432 94H276.48C326.973 94 368.023 132.116 374.066 182.245L378.364 217.897C383.347 259.199 369.795 300.444 341.202 330.654L339.924 332.005C321.81 351.138 297.097 362 270.747 362H243.84C187.315 362 140.979 317.352 138.84 260.867L137.087 214.603C136.715 204.786 137.611 194.967 139.758 185.483Z" fill="url(#bg)"/>
    <path d="M174.44 136.952C157.779 125.516 151.402 104.026 160.616 86.4844C168.536 71.4104 184.22 64.5972 198.54 70.2028C204.745 72.6317 209.462 77.6966 211.698 84.3444L220.449 110.361C223.087 118.205 220.744 126.862 214.507 132.252L196.222 148.055C189.821 153.587 180.843 155.042 174.44 136.952Z" fill="url(#bg)"/>
    <path d="M337.56 136.952C354.221 125.516 360.598 104.026 351.384 86.4844C343.464 71.4104 327.78 64.5972 313.46 70.2028C307.255 72.6317 302.538 77.6966 300.302 84.3444L291.551 110.361C288.913 118.205 291.256 126.862 297.493 132.252L315.778 148.055C322.179 153.587 331.157 155.042 337.56 136.952Z" fill="url(#bg)"/>
    <path d="M162 274.5C147.503 264.967 127.462 266.942 115.366 280.062C104.555 291.789 103.692 309.828 112.564 321.826C117.168 328.052 124.686 331.855 132.429 331.977L160.224 332.416C168.44 332.546 176.194 328.577 181.001 321.914L194.826 302.751C199.699 295.999 198.948 286.746 193.033 280.785C185.259 272.948 173.063 281.775 162 274.5Z" fill="url(#bg)"/>
    <path d="M283.907 350.961C274.983 370.29 274.331 392.517 282.108 412.335L287.318 425.607C290.528 433.783 282.435 441.751 274.31 438.414L244.801 426.291C236.606 422.924 231.831 414.323 233.342 405.593L239.188 371.81C241.77 356.885 254.729 346 269.876 346H277.549C282.497 346 286.149 355.501 283.907 350.961Z" fill="url(#bg)"/>
    <path d="M353.025 240.47C369.544 225.54 392.711 224.559 407.61 238.278C420.181 249.851 422.558 268.845 414.132 283.249C409.809 290.641 402.845 295.786 394.755 297.356L365.277 303.077C356.671 304.748 347.784 302.661 340.926 297.318L324.925 284.85C318.613 279.934 317.554 270.732 322.646 264.561L329.866 255.811C335.792 248.629 346.165 246.67 353.025 240.47Z" fill="url(#bg)"/>
    <path d="M220 312C220 277.758 247.758 250 282 250C316.242 250 344 277.758 344 312V317C344 351.242 316.242 379 282 379C247.758 379 220 351.242 220 317V312Z" fill="url(#belly)" fill-opacity="0.92"/>
    <path d="M182 188C182 160.386 204.386 138 232 138C259.614 138 282 160.386 282 188C282 215.614 259.614 238 232 238C204.386 238 182 215.614 182 188Z" fill="white"/>
    <path d="M285 188C285 160.386 307.386 138 335 138C362.614 138 385 160.386 385 188C385 215.614 362.614 238 335 238C307.386 238 285 215.614 285 188Z" fill="white"/>
    <path d="M208 188C208 174.745 218.745 164 232 164C245.255 164 256 174.745 256 188C256 201.255 245.255 212 232 212C218.745 212 208 201.255 208 188Z" fill="#2B6F4E"/>
    <path d="M311 188C311 174.745 321.745 164 335 164C348.255 164 359 174.745 359 188C359 201.255 348.255 212 335 212C321.745 212 311 201.255 311 188Z" fill="#2B6F4E"/>
    <path d="M220 180C220 175.582 223.582 172 228 172C232.418 172 236 175.582 236 180C236 184.418 232.418 188 228 188C223.582 188 220 184.418 220 180Z" fill="white"/>
    <path d="M323 180C323 175.582 326.582 172 331 172C335.418 172 339 175.582 339 180C339 184.418 335.418 188 331 188C326.582 188 323 184.418 323 180Z" fill="white"/>
    <path d="M264.846 227.248C272.991 235.346 283.451 239.395 294.719 239.395C305.988 239.395 316.448 235.346 324.593 227.248" stroke="#2F7A52" stroke-width="12" stroke-linecap="round"/>
    <path d="M179.303 132.394C163.485 121.535 157.434 101.134 166.184 84.4869C173.704 70.1765 188.59 63.7097 202.185 69.0303C208.076 71.3364 212.554 76.1452 214.675 82.455L222.98 107.146C225.484 114.591 223.261 122.809 217.337 127.93L199.971 142.941C193.892 148.196 185.364 149.58 179.303 132.394Z" stroke="url(#outline)" stroke-width="10" stroke-linejoin="round"/>
    <path d="M332.697 132.394C348.515 121.535 354.566 101.134 345.816 84.4869C338.296 70.1765 323.41 63.7097 309.815 69.0303C303.924 71.3364 299.446 76.1452 297.325 82.455L289.02 107.146C286.516 114.591 288.739 122.809 294.663 127.93L312.029 142.941C318.108 148.196 326.636 149.58 332.697 132.394Z" stroke="url(#outline)" stroke-width="10" stroke-linejoin="round"/>
    <path d="M145.385 184.266C149.142 138.896 186.264 103 232.047 103H266.615C311.321 103 347.677 136.74 353.026 181.099L356.831 212.642C361.242 249.183 349.251 285.691 323.947 312.433L322.815 313.629C306.782 330.559 284.912 340.172 261.596 340.172H237.794C187.781 340.172 146.774 300.681 144.882 250.714L143.33 209.785C143.001 201.099 143.793 192.41 145.385 184.266Z" stroke="url(#outline)" stroke-width="12" stroke-linejoin="round"/>
    <path d="M161.296 273.134C147.835 264.278 129.223 266.112 117.99 278.299C107.95 289.193 107.149 305.955 115.39 317.099C119.665 322.88 126.649 326.414 133.842 326.528L159.657 326.936C167.293 327.057 174.5 323.368 178.967 317.177L191.807 299.387C196.332 293.119 195.635 284.532 190.144 278.998C182.926 271.723 171.544 280.11 161.296 273.134Z" stroke="url(#outline)" stroke-width="10" stroke-linejoin="round"/>
    <path d="M282.273 348.375C273.996 366.304 273.392 386.916 280.608 405.307L285.444 417.619C288.423 425.205 280.909 432.597 273.369 429.5L245.976 418.248C238.369 415.119 233.936 407.136 235.339 399.033L240.765 367.665C243.162 353.815 255.186 343.713 269.241 343.713H276.358" stroke="url(#outline)" stroke-width="10" stroke-linecap="round" stroke-linejoin="round"/>
    <path d="M352.12 239.486C367.42 225.655 388.877 224.747 402.683 237.456C414.331 248.155 416.532 265.725 408.725 279.068C404.719 285.916 398.267 290.681 390.77 292.137L363.445 297.439C355.469 298.986 347.23 297.05 340.873 292.098L326.044 280.55C320.193 275.995 319.211 267.474 323.93 261.754L330.624 253.64C336.119 246.978 345.763 245.161 352.12 239.486Z" stroke="url(#outline)" stroke-width="10" stroke-linejoin="round"/>
    <ellipse cx="195" cy="118" rx="20" ry="11" transform="rotate(-24 195 118)" fill="white" fill-opacity="0.34"/>
    <ellipse cx="171" cy="217" rx="15" ry="9" fill="#B6EA70" fill-opacity="0.68"/>
    <ellipse cx="357" cy="216" rx="15" ry="9" fill="#B6EA70" fill-opacity="0.68"/>
  </g>
</svg>
