<svg width="512" height="512" viewBox="0 0 512 512" fill="none" xmlns="http://www.w3.org/2000/svg">
  <defs>
    <linearGradient id="icon-bg" x1="92" y1="68" x2="420" y2="444" gradientUnits="userSpaceOnUse">
      <stop stop-color="#AAF16E"/>
      <stop offset="0.55" stop-color="#4DBB63"/>
      <stop offset="1" stop-color="#14875D"/>
    </linearGradient>
    <linearGradient id="icon-belly" x1="210" y1="280" x2="320" y2="410" gradientUnits="userSpaceOnUse">
      <stop stop-color="#C8F08F"/>
      <stop offset="1" stop-color="#93D460"/>
    </linearGradient>
  </defs>

  <rect width="512" height="512" rx="120" fill="#F2FBF4"/>
  <rect x="24" y="24" width="464" height="464" rx="108" fill="url(#icon-bg)"/>
  <path d="M160.475 184.355C164.219 139.144 201.219 103.378 246.842 103.378H281.307C325.863 103.378 362.097 137.018 367.427 181.235L371.219 212.667C375.614 249.075 363.667 285.452 338.456 312.097L337.329 313.287C321.355 330.155 299.567 339.735 276.341 339.735H252.631C202.812 339.735 162.014 300.399 160.129 250.638L158.583 209.86C158.256 201.222 159.043 192.581 160.475 184.355Z" fill="#68C866" stroke="#1D744E" stroke-width="12" stroke-linejoin="round"/>
  <path d="M189.517 136.423C173.758 125.605 167.73 105.281 176.448 88.694C183.941 74.435 198.773 67.9912 212.319 73.2913C218.189 75.5889 222.651 80.3796 224.764 86.6665L233.034 111.252C235.527 118.664 233.315 126.847 227.417 131.946L210.128 146.889C204.077 152.119 195.589 153.497 189.517 136.423Z" fill="#68C866" stroke="#1D744E" stroke-width="10" stroke-linejoin="round"/>
  <path d="M336.995 136.423C352.754 125.605 358.782 105.281 350.064 88.694C342.571 74.435 327.739 67.9912 314.193 73.2913C308.323 75.5889 303.861 80.3796 301.748 86.6665L293.478 111.252C290.985 118.664 293.197 126.847 299.095 131.946L316.384 146.889C322.435 152.119 330.923 153.497 336.995 136.423Z" fill="#68C866" stroke="#1D744E" stroke-width="10" stroke-linejoin="round"/>
  <path d="M238 313C238 281.52 263.52 256 295 256C326.48 256 352 281.52 352 313V317C352 348.48 326.48 374 295 374C263.52 374 238 348.48 238 317V313Z" fill="url(#icon-belly)" fill-opacity="0.92"/>
  <path d="M193 192C193 166.042 214.042 145 240 145C265.958 145 287 166.042 287 192C287 217.958 265.958 239 240 239C214.042 239 193 217.958 193 192Z" fill="white"/>
  <path d="M289 192C289 166.042 310.042 145 336 145C361.958 145 383 166.042 383 192C383 217.958 361.958 239 336 239C310.042 239 289 217.958 289 192Z" fill="white"/>
  <path d="M217 192C217 179.297 227.297 169 240 169C252.703 169 263 179.297 263 192C263 204.703 252.703 215 240 215C227.297 215 217 204.703 217 192Z" fill="#2B6F4E"/>
  <path d="M313 192C313 179.297 323.297 169 336 169C348.703 169 359 179.297 359 192C359 204.703 348.703 215 336 215C323.297 215 313 204.703 313 192Z" fill="#2B6F4E"/>
  <path d="M227 184C227 179.582 230.582 176 235 176C239.418 176 243 179.582 243 184C243 188.418 239.418 192 235 192C230.582 192 227 188.418 227 184Z" fill="white"/>
  <path d="M323 184C323 179.582 326.582 176 331 176C335.418 176 339 179.582 339 184C339 188.418 335.418 192 331 192C326.582 192 323 188.418 323 184Z" fill="white"/>
  <path d="M269 229C276.707 236.666 286.602 240.5 297.26 240.5C307.919 240.5 317.814 236.666 325.521 229" stroke="#2F7A52" stroke-width="12" stroke-linecap="round"/>
  <ellipse cx="201" cy="121" rx="20" ry="11" transform="rotate(-24 201 121)" fill="white" fill-opacity="0.3"/>
</svg>
